<svg width="2864" height="683" xmlns="http://www.w3.org/2000/svg" xmlns:xlink="http://www.w3.org/1999/xlink" xml:space="preserve" overflow="hidden"><defs><linearGradient x1="1684.16" y1="1553.4" x2="1450.84" y2="1900.6" gradientUnits="userSpaceOnUse" spreadMethod="reflect" id="fill0"><stop offset="0" stop-color="#003F77" stop-opacity="1"/><stop offset="0.5" stop-color="#005FAD" stop-opacity="1"/><stop offset="1" stop-color="#0072CE" stop-opacity="1"/></linearGradient><linearGradient x1="3038.96" y1="2290.8" x2="2787.46" y2="1298.54" gradientUnits="userSpaceOnUse" spreadMethod="reflect" id="fill1"><stop offset="0" stop-color="#003F77" stop-opacity="1"/><stop offset="0.5" stop-color="#005FAD" stop-opacity="1"/><stop offset="1" stop-color="#0072CE" stop-opacity="1"/></linearGradient></defs><g transform="translate(-1210 -1402)"><g><path d="M1318 1560.5C1318 1514.94 1354.94 1478 1400.5 1478L1730.5 1478C1776.06 1478 1813 1514.94 1813 1560.5L1813 1890.5C1813 1936.06 1776.06 1973 1730.5 1973L1400.5 1973C1354.94 1973 1318 1936.06 1318 1890.5Z" fill="#FFFFFF" fill-rule="evenodd" fill-opacity="1"/><path d="M1544.06 1853 1542.66 1853C1536.56 1852.53 1531.41 1847.86 1530 1841.78L1497.66 1670.69 1477.5 1731.46C1475.62 1737.07 1470.47 1740.81 1464.38 1740.81L1380 1740.81 1380 1712.76 1454.06 1712.76 1488.28 1610.39C1490.16 1604.31 1496.25 1600.57 1502.34 1601.04 1508.44 1601.51 1514.06 1606.18 1515 1612.26L1547.81 1787.56 1595.62 1661.34C1597.97 1655.73 1603.12 1651.99 1609.22 1652.46 1615.31 1652.93 1620.47 1656.67 1622.34 1662.74L1649.06 1750.16 1679.06 1717.44C1681.87 1714.63 1685.62 1712.76 1689.37 1712.76L1755 1712.76 1755 1740.81 1695.47 1740.81 1652.81 1787.56C1649.53 1791.3 1644.37 1792.7 1639.22 1791.76 1634.06 1790.83 1630.31 1787.09 1628.91 1781.95L1607.81 1709.96 1557.19 1844.12C1555.31 1849.26 1549.69 1853 1544.06 1853Z" fill="url(#fill0)" fill-rule="evenodd"/><path d="M2008.05 1732.48 2008.05 1802 2133.45 1802C2149.47 1802 2160.44 1799.92 2166.37 1795.76 2172.29 1791.6 2175.25 1782.39 2175.25 1768.12 2175.25 1753.2 2172.21 1743.53 2166.15 1739.11 2160.08 1734.69 2148.74 1732.48 2132.13 1732.48ZM2336.88 1653.28 2435 1653.28 2435 1810.8C2435 1839.38 2438.15 1857.6 2444.43 1865.46 2450.71 1873.31 2465.9 1877.24 2490 1877.24L2534.38 1877.74 2575.8 1877.24C2595.84 1877.24 2608.91 1873.85 2615.03 1867.08 2621.15 1860.32 2624.2 1845.81 2624.2 1823.56L2624.2 1812.56 2624.2 1653.28 2722.76 1653.28 2722.76 1824.44 2722.76 1841.6C2722.76 1889.01 2710.28 1920.3 2685.33 1935.46 2660.37 1950.62 2622.52 1958.2 2571.78 1958.2L2498.8 1957.76C2459.72 1957.76 2429.57 1955.63 2408.36 1951.39 2387.14 1947.15 2369.93 1936.27 2356.71 1918.75 2343.49 1901.22 2336.88 1874.04 2336.88 1837.2ZM3590.87 1652.84 3927.03 1652.84 3927.03 1728.08 3688.99 1728.08 3688.99 1769.88 3911.19 1769.88 3911.19 1836.32 3688.99 1836.32 3688.99 1879.88 3927.03 1879.88 3927.03 1954.68 3590.87 1954.68ZM2799.09 1652.84 2897.21 1652.84 2897.21 1872.84 3100.05 1872.84 3100.05 1954.68 2799.09 1954.68ZM1909.93 1652.84 2151.93 1652.84C2197.36 1652.84 2229.11 1660.4 2247.16 1675.52 2265.22 1690.65 2274.25 1720.49 2274.25 1765.04 2274.25 1807.12 2267.2 1837.08 2253.09 1854.9 2238.99 1872.72 2209.96 1881.64 2166.01 1881.64L2143.13 1881.64 2008.05 1881.64 2008.05 1954.68 1909.93 1954.68ZM3329.69 1649.76 3392.19 1650.64C3420.29 1650.64 3442.4 1652.73 3458.5 1656.91 3474.6 1661.09 3486.01 1668.8 3492.72 1680.05 3499.44 1691.29 3503.72 1701.37 3505.56 1710.26 3507.4 1719.16 3508.32 1732.58 3508.32 1750.52L3411.96 1750.52C3411.96 1738.9 3409.45 1731.38 3404.42 1727.94 3399.4 1724.51 3391.91 1722.8 3381.97 1722.8L3339.06 1722.36 3270.93 1724.56C3262.47 1724.56 3255.63 1725.95 3250.4 1728.75 3245.17 1731.55 3242.56 1736.01 3242.56 1742.16 3242.56 1751.4 3245.73 1757.45 3252.06 1760.31 3258.39 1763.17 3267.69 1764.6 3279.96 1764.6L3284.99 1764.6 3344.64 1765.04 3408 1765.92C3446.77 1765.92 3475.24 1772.2 3493.4 1784.77 3511.56 1797.35 3520.64 1822.15 3520.64 1859.2 3520.64 1895.22 3512.48 1920.06 3496.17 1933.73 3479.86 1947.4 3453.43 1954.24 3416.87 1954.24L3302.4 1957.32 3242.56 1956C3209.92 1956 3185.62 1950.52 3169.68 1939.58 3153.73 1928.64 3145.76 1906.83 3145.76 1874.16L3145.76 1852.6 3242.16 1852.6 3243 1861.85C3243 1871.87 3246.42 1878.19 3253.25 1880.8 3260.08 1883.41 3268.99 1884.72 3279.96 1884.72L3326.46 1885.22 3388.32 1883.4C3402.36 1883.4 3411.43 1881.71 3415.51 1878.35 3419.6 1874.98 3421.64 1869.48 3421.64 1861.84 3421.64 1855.34 3419.24 1850.12 3414.44 1846.18 3409.64 1842.25 3399.72 1840.28 3384.68 1840.28L3370.02 1840.28 3223.2 1837.2C3194.19 1837.2 3173.66 1829.77 3161.62 1814.91 3149.58 1800.05 3143.56 1777.71 3143.56 1747.88 3143.56 1722.89 3147.36 1703.26 3154.97 1688.98 3162.57 1674.7 3176.2 1665.05 3195.85 1660.02 3215.5 1654.99 3241.13 1652.02 3272.74 1651.12 3304.35 1650.21 3323.33 1649.76 3329.69 1649.76Z" stroke="#FFFFFF" stroke-width="3" stroke-linecap="butt" stroke-linejoin="round" stroke-miterlimit="10" stroke-opacity="1" fill="url(#fill1)" fill-rule="evenodd"/><text fill="#000000" fill-opacity="0" font-family="Arial,Arial_MSFontService,sans-serif" font-size="308.44" direction="ltr" writing-mode="lr-tb" x="1909.93" y="1919.64">PULSE</text><path d="M3748.84 1574.88 3748.84 1594.65 3760.8 1594.65C3765.56 1594.65 3768.57 1594.11 3769.86 1593.01 3771.14 1591.92 3771.78 1589.33 3771.78 1585.25 3771.78 1580.58 3771.25 1577.68 3770.18 1576.56 3769.11 1575.44 3766.34 1574.88 3761.85 1574.88ZM3695.56 1574.88 3695.56 1593.88 3710.64 1593.88C3714.23 1593.88 3716.62 1593.24 3717.79 1591.96 3718.97 1590.68 3719.56 1588.1 3719.56 1584.24 3719.56 1580.29 3719.05 1577.75 3718.04 1576.6 3717.02 1575.45 3714.8 1574.88 3711.37 1574.88ZM3589.57 1574.88 3589.57 1594.65 3601.53 1594.65C3606.28 1594.65 3609.3 1594.11 3610.59 1593.01 3611.87 1591.92 3612.51 1589.33 3612.51 1585.25 3612.51 1580.58 3611.98 1577.68 3610.91 1576.56 3609.84 1575.44 3607.07 1574.88 3602.58 1574.88ZM2955.93 1574.88 2955.93 1612.53 2970.88 1612.53C2975.91 1612.53 2979.16 1611.37 2980.63 1609.06 2982.1 1606.75 2982.84 1601.65 2982.84 1593.76 2982.84 1585.6 2982.18 1580.42 2980.85 1578.2 2979.53 1575.99 2976.42 1574.88 2971.53 1574.88ZM2849.37 1574.88 2849.37 1593.88 2864.44 1593.88C2868.03 1593.88 2870.42 1593.24 2871.59 1591.96 2872.77 1590.68 2873.36 1588.1 2873.36 1584.24 2873.36 1580.29 2872.85 1577.75 2871.84 1576.6 2870.82 1575.45 2868.6 1574.88 2865.17 1574.88ZM2798.95 1574.88 2798.95 1594.65 2810.9 1594.65C2815.66 1594.65 2818.68 1594.11 2819.96 1593.01 2821.25 1591.92 2821.89 1589.33 2821.89 1585.25 2821.89 1580.58 2821.35 1577.68 2820.29 1576.56 2819.22 1575.44 2816.44 1574.88 2811.96 1574.88ZM3810.93 1574.55C3803.88 1574.55 3799.76 1575.46 3798.57 1577.27 3797.38 1579.08 3796.79 1585.35 3796.79 1596.07 3796.79 1604.02 3797.48 1608.8 3798.88 1610.42 3800.27 1612.04 3804.37 1612.85 3811.18 1612.85 3817.69 1612.85 3821.59 1611.94 3822.89 1610.12 3824.19 1608.29 3824.83 1602.76 3824.83 1593.52 3824.83 1584.25 3824.22 1578.77 3822.99 1577.09 3821.76 1575.4 3817.74 1574.55 3810.93 1574.55ZM2914.32 1574.55C2907.27 1574.55 2903.15 1575.46 2901.96 1577.27 2900.77 1579.08 2900.17 1585.35 2900.17 1596.07 2900.17 1604.02 2900.87 1608.8 2902.26 1610.42 2903.65 1612.04 2907.75 1612.85 2914.56 1612.85 2921.07 1612.85 2924.98 1611.94 2926.27 1610.12 2927.57 1608.29 2928.22 1602.76 2928.22 1593.52 2928.22 1584.25 2927.6 1578.77 2926.38 1577.09 2925.15 1575.4 2921.13 1574.55 2914.32 1574.55ZM3890.22 1566.04 3928.07 1566.04 3928.07 1574.88 3900.72 1574.88 3900.72 1589.14 3926.66 1589.14 3926.66 1596.88 3900.72 1596.88 3900.72 1612.53 3928.32 1612.53 3928.32 1621.36 3890.22 1621.36ZM3738.35 1566.04 3760.64 1566.04 3763.39 1566.04C3770.88 1566.04 3775.92 1567.35 3778.53 1569.95 3781.14 1572.56 3782.44 1577.59 3782.44 1585.05 3782.44 1592.45 3781.2 1597.37 3778.71 1599.8 3776.23 1602.23 3771.2 1603.45 3763.64 1603.45L3761.21 1603.49 3748.84 1603.49 3748.84 1621.36 3738.35 1621.36ZM3685.07 1566.04 3712.34 1566.04C3719.12 1566.04 3723.8 1567.22 3726.36 1569.57 3728.93 1571.92 3730.21 1576.17 3730.21 1582.33 3730.21 1587.93 3729.57 1591.75 3728.29 1593.8 3727.01 1595.86 3724.38 1597.28 3720.41 1598.06L3720.41 1598.42C3726.54 1598.8 3729.61 1602.38 3729.61 1609.16L3729.61 1621.36 3719.11 1621.36 3719.11 1611.27C3719.11 1605.57 3716.3 1602.72 3710.68 1602.72L3695.56 1602.72 3695.56 1621.36 3685.07 1621.36ZM3629.53 1566.04 3640.03 1566.04 3640.03 1603.45C3640.03 1607.53 3640.76 1610.12 3642.22 1611.21 3643.68 1612.3 3647.11 1612.85 3652.51 1612.85 3658.05 1612.85 3661.53 1612.3 3662.95 1611.19 3664.37 1610.08 3665.08 1607.37 3665.08 1603.04L3665.08 1566.04 3675.57 1566.04 3675.57 1602.84C3675.57 1610.54 3674.09 1615.63 3671.14 1618.12 3668.18 1620.61 3662.13 1621.85 3653 1621.85 3643.35 1621.85 3637.03 1620.67 3634.03 1618.32 3631.03 1615.97 3629.53 1611.01 3629.53 1603.45ZM3579.08 1566.04 3601.37 1566.04 3604.12 1566.04C3611.61 1566.04 3616.65 1567.35 3619.26 1569.95 3621.87 1572.56 3623.17 1577.59 3623.17 1585.05 3623.17 1592.45 3621.93 1597.37 3619.44 1599.8 3616.96 1602.23 3611.93 1603.45 3604.37 1603.45L3601.93 1603.49 3589.57 1603.49 3589.57 1621.36 3579.08 1621.36ZM3502.31 1566.04 3512.8 1566.04 3512.8 1588.62 3538.74 1588.62 3538.74 1566.04 3549.24 1566.04 3549.24 1621.36 3538.74 1621.36 3538.74 1597.45 3512.8 1597.45 3512.8 1621.36 3502.31 1621.36ZM3454.35 1566.04 3497.35 1566.04 3497.35 1575.44 3480.81 1575.44 3480.81 1621.36 3470.31 1621.36 3470.31 1575.44 3454.35 1575.44ZM3438.71 1566.04 3449.21 1566.04 3449.21 1621.36 3438.71 1621.36ZM3351.92 1566.04 3362.62 1566.04 3370.61 1596.4C3371.09 1598.34 3371.7 1601.03 3372.43 1604.46L3373.28 1608.52 3374.09 1612.57 3374.46 1612.57C3374.89 1610.78 3375.21 1609.43 3375.43 1608.52L3376.4 1604.5C3376.91 1602.4 3377.63 1599.71 3378.55 1596.44L3387.06 1566.04 3399.38 1566.04 3407.69 1596.44C3408.39 1599.03 3409.08 1601.72 3409.75 1604.5L3410.69 1608.52 3411.66 1612.57 3411.98 1612.57 3412.88 1608.52 3413.73 1604.46C3414.43 1601.19 3415.06 1598.49 3415.63 1596.36L3423.82 1566.04 3434.56 1566.04 3419.76 1621.36 3404.24 1621.36 3396.54 1592.99C3395.84 1590.43 3395.02 1586.99 3394.07 1582.7L3393.3 1579.29 3392.94 1579.29 3392.13 1582.74 3391.36 1586.14C3390.79 1588.44 3390.18 1590.74 3389.53 1593.03L3381.63 1621.36 3366.27 1621.36ZM3237.78 1566.04 3280.64 1566.04 3280.78 1566.04 3292.8 1566.04 3301.14 1580.63C3301.6 1581.44 3302.39 1582.94 3303.49 1585.13L3304.67 1587.36 3305.8 1589.59 3306.09 1589.59 3307.26 1587.36 3308.44 1585.13C3309.44 1583.13 3310.24 1581.63 3310.83 1580.63L3319.26 1566.04 3331.58 1566.04 3311.07 1600.25 3311.07 1621.36 3300.58 1621.36 3300.58 1600.25 3280.78 1566.29 3280.78 1575.44 3264.25 1575.44 3264.25 1621.36 3253.75 1621.36 3253.75 1575.44 3237.78 1575.44ZM3222.15 1566.04 3232.65 1566.04 3232.65 1621.36 3222.15 1621.36ZM3166.05 1566.04 3176.96 1566.04 3187.33 1597.37C3188.3 1600.37 3189.75 1605.39 3191.67 1612.45L3191.95 1612.45 3193 1608.68C3194.3 1603.98 3195.41 1600.22 3196.33 1597.41L3206.58 1566.04 3217.69 1566.04 3199.85 1621.36 3183.72 1621.36ZM3151.11 1566.04 3161.6 1566.04 3161.6 1621.36 3151.11 1621.36ZM3103.15 1566.04 3146.15 1566.04 3146.15 1575.44 3129.61 1575.44 3129.61 1621.36 3119.12 1621.36 3119.12 1575.44 3103.15 1575.44ZM3001.04 1566.04 3011.54 1566.04 3011.54 1603.45C3011.54 1607.53 3012.27 1610.12 3013.73 1611.21 3015.19 1612.3 3018.62 1612.85 3024.02 1612.85 3029.56 1612.85 3033.04 1612.3 3034.46 1611.19 3035.88 1610.08 3036.59 1607.37 3036.59 1603.04L3036.59 1566.04 3047.08 1566.04 3047.08 1602.84C3047.08 1610.54 3045.6 1615.63 3042.65 1618.12 3039.69 1620.61 3033.64 1621.85 3024.51 1621.85 3014.86 1621.85 3008.54 1620.67 3005.54 1618.32 3002.54 1615.97 3001.04 1611.01 3001.04 1603.45ZM2945.43 1566.04 2972.63 1566.04C2980.35 1566.04 2985.76 1567.73 2988.86 1571.11 2991.95 1574.49 2993.5 1580.4 2993.5 1588.86 2993.5 1602.67 2992.25 1611.53 2989.77 1615.47 2987.28 1619.4 2981.68 1621.36 2972.95 1621.36L2945.43 1621.36ZM2838.87 1566.04 2866.14 1566.04C2872.93 1566.04 2877.6 1567.22 2880.17 1569.57 2882.73 1571.92 2884.02 1576.17 2884.02 1582.33 2884.02 1587.93 2883.37 1591.75 2882.09 1593.8 2880.81 1595.86 2878.18 1597.28 2874.21 1598.06L2874.21 1598.42C2880.34 1598.8 2883.41 1602.38 2883.41 1609.16L2883.41 1621.36 2872.91 1621.36 2872.91 1611.27C2872.91 1605.57 2870.1 1602.72 2864.48 1602.72L2849.37 1602.72 2849.37 1621.36 2838.87 1621.36ZM2788.45 1566.04 2810.74 1566.04 2813.5 1566.04C2820.98 1566.04 2826.03 1567.35 2828.64 1569.95 2831.24 1572.56 2832.55 1577.59 2832.55 1585.05 2832.55 1592.45 2831.3 1597.37 2828.82 1599.8 2826.33 1602.23 2821.31 1603.45 2813.74 1603.45L2811.31 1603.49 2798.95 1603.49 2798.95 1621.36 2788.45 1621.36ZM3861.94 1565.56C3870.27 1565.56 3875.87 1566.54 3878.76 1568.51 3881.65 1570.49 3883.1 1574.34 3883.1 1580.06L3883.1 1582.17 3872.85 1582.17C3872.79 1581.66 3872.77 1581.28 3872.77 1581.04 3872.52 1577.93 3871.83 1575.98 3870.7 1575.18 3869.56 1574.38 3866.89 1573.99 3862.67 1573.99 3857.7 1573.99 3854.45 1574.45 3852.93 1575.36 3851.4 1576.28 3850.64 1578.21 3850.64 1581.16 3850.64 1584.64 3851.26 1586.74 3852.5 1587.44 3853.74 1588.14 3857.85 1588.68 3864.82 1589.06 3873.06 1589.52 3878.39 1590.7 3880.81 1592.59 3883.23 1594.48 3884.44 1598.41 3884.44 1604.38 3884.44 1611.73 3883.02 1616.48 3880.18 1618.63 3877.34 1620.77 3871.09 1621.85 3861.42 1621.85 3852.72 1621.85 3846.94 1620.79 3844.09 1618.69 3841.24 1616.58 3839.82 1612.31 3839.82 1605.88L3839.78 1603.85 3849.99 1603.85 3850.03 1605.03C3850.03 1608.89 3850.71 1611.26 3852.06 1612.12 3853.41 1612.99 3857.09 1613.42 3863.12 1613.42 3867.82 1613.42 3870.82 1612.92 3872.12 1611.92 3873.41 1610.92 3874.06 1608.61 3874.06 1604.99 3874.06 1602.31 3873.57 1600.54 3872.58 1599.66 3871.6 1598.78 3869.47 1598.25 3866.2 1598.06L3860.4 1597.69C3851.65 1597.18 3846.06 1595.97 3843.63 1594.05 3841.19 1592.13 3839.98 1588.01 3839.98 1581.69 3839.98 1575.23 3841.44 1570.93 3844.38 1568.78 3847.31 1566.63 3853.16 1565.56 3861.94 1565.56ZM3811.74 1565.56C3821.79 1565.56 3828.26 1567.22 3831.16 1570.56 3834.05 1573.9 3835.49 1581.36 3835.49 1592.95 3835.49 1605.62 3834.04 1613.61 3831.14 1616.9 3828.23 1620.2 3821.2 1621.85 3810.04 1621.85 3799.99 1621.85 3793.49 1620.22 3790.55 1616.96 3787.6 1613.71 3786.13 1606.54 3786.13 1595.47 3786.13 1582.28 3787.58 1574 3790.47 1570.62 3793.36 1567.24 3800.45 1565.56 3811.74 1565.56ZM3080.97 1565.56C3088.86 1565.56 3094.13 1566.74 3096.78 1569.1 3099.43 1571.47 3100.75 1576.16 3100.75 1583.19L3100.79 1584.44 3090.26 1584.44 3090.26 1583.02C3090.26 1579.4 3089.57 1577.09 3088.21 1576.07 3086.84 1575.06 3083.73 1574.55 3078.87 1574.55 3072.36 1574.55 3068.44 1575.35 3067.13 1576.94 3065.82 1578.54 3065.17 1583.27 3065.17 1591.13 3065.17 1601.72 3065.76 1607.99 3066.93 1609.93 3068.11 1611.88 3071.91 1612.85 3078.34 1612.85 3083.55 1612.85 3086.94 1612.31 3088.49 1611.23 3090.05 1610.15 3090.82 1607.77 3090.82 1604.1L3090.74 1601.63 3101.28 1601.63 3101.28 1603.53C3101.28 1611.23 3099.87 1616.21 3097.06 1618.46 3094.25 1620.72 3088.04 1621.85 3078.42 1621.85 3067.51 1621.85 3060.79 1620.07 3058.28 1616.5 3055.77 1612.93 3054.51 1603.4 3054.51 1587.89 3054.51 1578.75 3056.21 1572.75 3059.62 1569.87 3063.02 1566.99 3070.14 1565.56 3080.97 1565.56ZM2915.13 1565.56C2925.18 1565.56 2931.65 1567.22 2934.54 1570.56 2937.43 1573.9 2938.88 1581.36 2938.88 1592.95 2938.88 1605.62 2937.43 1613.61 2934.52 1616.9 2931.62 1620.2 2924.59 1621.85 2913.43 1621.85 2903.38 1621.85 2896.88 1620.22 2893.93 1616.96 2890.99 1613.71 2889.52 1606.54 2889.52 1595.47 2889.52 1582.28 2890.96 1574 2893.85 1570.62 2896.74 1567.24 2903.84 1565.56 2915.13 1565.56Z" stroke="#FFFFFF" stroke-width="3" stroke-linecap="butt" stroke-linejoin="round" stroke-miterlimit="10" stroke-opacity="1" fill="#0070C0" fill-rule="evenodd" fill-opacity="1"/><text fill="#000000" fill-opacity="0" font-family="Arial,Arial_MSFontService,sans-serif" font-size="56.2925" direction="ltr" writing-mode="lr-tb" x="2788.45" y="1614.81">PRODUCTIVITY WITH PURPOSE</text></g></g></svg>