<svg width="2672" height="536" xmlns="http://www.w3.org/2000/svg" xmlns:xlink="http://www.w3.org/1999/xlink" xml:space="preserve" overflow="hidden"><defs><linearGradient x1="1793" y1="1130" x2="1298" y2="635" gradientUnits="userSpaceOnUse" spreadMethod="reflect" id="fill0"><stop offset="0" stop-color="#003F77" stop-opacity="1"/><stop offset="0.5" stop-color="#005FAD" stop-opacity="1"/><stop offset="1" stop-color="#0072CE" stop-opacity="1"/></linearGradient><linearGradient x1="2710.37" y1="386.288" x2="2950.68" y2="1384.43" gradientUnits="userSpaceOnUse" spreadMethod="reflect" id="fill1"><stop offset="0" stop-color="#003F77" stop-opacity="1"/><stop offset="0.5" stop-color="#005FAD" stop-opacity="1"/><stop offset="1" stop-color="#0072CE" stop-opacity="1"/></linearGradient><linearGradient x1="3345.03" y1="585.176" x2="3328.08" y2="781.713" gradientUnits="userSpaceOnUse" spreadMethod="reflect" id="fill2"><stop offset="0" stop-color="#003F77" stop-opacity="1"/><stop offset="0.5" stop-color="#005FAD" stop-opacity="1"/><stop offset="1" stop-color="#0072CE" stop-opacity="1"/></linearGradient></defs><g transform="translate(-1297 -614)"><g><path d="M1298 717.502C1298 671.937 1334.94 635 1380.5 635L1710.5 635C1756.06 635 1793 671.937 1793 717.502L1793 1047.5C1793 1093.06 1756.06 1130 1710.5 1130L1380.5 1130C1334.94 1130 1298 1093.06 1298 1047.5Z" fill="url(#fill0)" fill-rule="evenodd"/><path d="M1523.06 1010 1521.66 1010C1515.56 1009.53 1510.41 1004.86 1509 998.781L1476.66 827.691 1456.5 888.461C1454.62 894.07 1449.47 897.81 1443.37 897.81L1359 897.81 1359 869.762 1433.06 869.762 1467.28 767.388C1469.16 761.312 1475.25 757.572 1481.34 758.039 1487.44 758.507 1493.06 763.182 1494 769.258L1526.81 944.556 1574.62 818.342C1576.97 812.732 1582.12 808.993 1588.22 809.46 1594.31 809.927 1599.47 813.667 1601.34 819.744L1628.06 907.159 1658.06 874.437C1660.87 871.632 1664.62 869.762 1668.37 869.762L1734 869.762 1734 897.81 1674.47 897.81 1631.81 944.556C1628.53 948.296 1623.37 949.698 1618.22 948.763 1613.06 947.828 1609.31 944.088 1607.91 938.946L1586.81 866.958 1536.19 1001.12C1534.31 1006.26 1528.69 1010 1523.06 1010Z" fill="#FFFFFF" fill-rule="evenodd" fill-opacity="1"/><path d="M1980.36 823.165 1980.36 892.685 2105.76 892.685C2121.78 892.685 2132.76 890.606 2138.68 886.449 2144.6 882.292 2147.56 873.077 2147.56 858.805 2147.56 843.891 2144.53 834.222 2138.46 829.799 2132.4 825.376 2121.06 823.165 2104.44 823.165ZM2309.2 743.965 2407.32 743.965 2407.32 901.485C2407.32 930.071 2410.46 948.291 2416.74 956.144 2423.03 963.998 2438.22 967.925 2462.32 967.925L2506.69 968.427 2548.12 967.925C2568.15 967.925 2581.23 964.541 2587.34 957.774 2593.46 951.007 2596.52 936.497 2596.52 914.245L2596.52 903.245 2596.52 743.965 2695.08 743.965 2695.08 915.125 2695.08 932.285C2695.08 979.704 2682.6 1010.99 2657.64 1026.15 2632.68 1041.31 2594.83 1048.88 2544.09 1048.88L2471.12 1048.44C2432.03 1048.44 2401.88 1046.32 2380.67 1042.08 2359.46 1037.84 2342.24 1026.96 2329.02 1009.44 2315.81 991.914 2309.2 964.73 2309.2 927.885ZM3563.18 743.525 3899.34 743.525 3899.34 818.765 3661.3 818.765 3661.3 860.565 3883.5 860.565 3883.5 927.005 3661.3 927.005 3661.3 970.565 3899.34 970.565 3899.34 1045.36 3563.18 1045.36ZM2771.41 743.525 2869.53 743.525 2869.53 963.525 3072.37 963.525 3072.37 1045.36 2771.41 1045.36ZM1882.24 743.525 2124.24 743.525C2169.68 743.525 2201.42 751.087 2219.48 766.212 2237.53 781.337 2246.56 811.175 2246.56 855.725 2246.56 897.814 2239.51 927.769 2225.41 945.591 2211.3 963.414 2182.28 972.325 2138.32 972.325L2115.44 972.325 1980.36 972.325 1980.36 1045.36 1882.24 1045.36ZM3302 740.445 3364.5 741.325C3392.61 741.325 3414.71 743.415 3430.81 747.595 3446.91 751.775 3458.32 759.489 3465.04 770.736 3471.75 781.984 3476.03 792.055 3477.87 800.952 3479.71 809.848 3480.63 823.266 3480.63 841.205L3384.27 841.205C3384.27 829.591 3381.76 822.067 3376.73 818.634 3371.71 815.201 3364.23 813.485 3354.28 813.485L3311.37 813.045 3243.25 815.245C3234.79 815.245 3227.94 816.643 3222.71 819.439 3217.49 822.234 3214.87 826.703 3214.87 832.845 3214.87 842.089 3218.04 848.141 3224.37 850.998 3230.71 853.856 3240.01 855.285 3252.27 855.285L3257.31 855.285 3316.95 855.725 3380.31 856.605C3419.09 856.605 3447.56 862.891 3465.71 875.463 3483.87 888.035 3492.95 912.842 3492.95 949.885 3492.95 985.905 3484.8 1010.75 3468.49 1024.42 3452.18 1038.09 3425.74 1044.92 3389.18 1044.92L3274.71 1048 3214.87 1046.68C3182.23 1046.68 3157.94 1041.21 3141.99 1030.27 3126.05 1019.33 3118.07 997.519 3118.07 964.845L3118.07 943.285 3214.47 943.285 3215.31 952.539C3215.31 962.562 3218.73 968.879 3225.56 971.49 3232.4 974.1 3241.3 975.405 3252.27 975.405L3298.78 975.907 3360.63 974.085C3374.68 974.085 3383.74 972.403 3387.83 969.039 3391.91 965.674 3393.95 960.17 3393.95 952.525 3393.95 946.03 3391.55 940.813 3386.75 936.874 3381.95 932.935 3372.03 930.965 3356.99 930.965L3342.34 930.965 3195.51 927.885C3166.5 927.885 3145.97 920.456 3133.93 905.599 3121.89 890.743 3115.87 868.398 3115.87 838.565 3115.87 813.581 3119.67 793.95 3127.28 779.67 3134.88 765.391 3148.51 755.737 3168.16 750.709 3187.81 745.681 3213.44 742.714 3245.05 741.806 3276.67 740.899 3295.65 740.445 3302 740.445Z" stroke="#FFFFFF" stroke-width="3" stroke-linecap="butt" stroke-linejoin="round" stroke-miterlimit="10" stroke-opacity="1" fill="url(#fill1)" fill-rule="evenodd"/><text fill="#000000" fill-opacity="0" font-family="Arial,Arial_MSFontService,sans-serif" font-size="308.44" direction="ltr" writing-mode="lr-tb" x="1882.24" y="1010.33">PULSE</text><path d="M3728.03 667.461 3728.03 687.239 3739.99 687.239C3744.74 687.239 3747.76 686.692 3749.05 685.597 3750.33 684.503 3750.97 681.916 3750.97 677.836 3750.97 673.162 3750.44 670.265 3749.37 669.143 3748.3 668.022 3745.53 667.461 3741.04 667.461ZM3674.75 667.461 3674.75 686.469 3689.83 686.469C3693.42 686.469 3695.81 685.827 3696.98 684.544 3698.16 683.26 3698.74 680.687 3698.74 676.823 3698.74 672.879 3698.24 670.332 3697.22 669.184 3696.21 668.036 3693.99 667.461 3690.56 667.461ZM3568.76 667.461 3568.76 687.239 3580.72 687.239C3585.47 687.239 3588.49 686.692 3589.78 685.597 3591.06 684.503 3591.7 681.916 3591.7 677.836 3591.7 673.162 3591.17 670.265 3590.1 669.143 3589.03 668.022 3586.26 667.461 3581.77 667.461ZM2935.12 667.461 2935.12 705.111 2950.07 705.111C2955.1 705.111 2958.35 703.956 2959.82 701.646 2961.29 699.336 2962.03 694.237 2962.03 686.347 2962.03 678.188 2961.36 673 2960.04 670.785 2958.72 668.569 2955.61 667.461 2950.72 667.461ZM2828.55 667.461 2828.55 686.469 2843.63 686.469C2847.22 686.469 2849.61 685.827 2850.78 684.544 2851.96 683.26 2852.55 680.687 2852.55 676.823 2852.55 672.879 2852.04 670.332 2851.03 669.184 2850.01 668.036 2847.79 667.461 2844.36 667.461ZM2778.14 667.461 2778.14 687.239 2790.09 687.239C2794.85 687.239 2797.87 686.692 2799.15 685.597 2800.43 684.503 2801.08 681.916 2801.08 677.836 2801.08 673.162 2800.54 670.265 2799.48 669.143 2798.41 668.022 2795.63 667.461 2791.15 667.461ZM3790.12 667.137C3783.07 667.137 3778.95 668.042 3777.76 669.853 3776.57 671.663 3775.98 677.931 3775.98 688.657 3775.98 696.601 3776.67 701.383 3778.06 703.004 3779.46 704.625 3783.56 705.436 3790.36 705.436 3796.88 705.436 3800.78 704.524 3802.08 702.7 3803.37 700.876 3804.02 695.344 3804.02 686.104 3804.02 676.837 3803.41 671.359 3802.18 669.67 3800.95 667.982 3796.93 667.137 3790.12 667.137ZM2893.51 667.137C2886.46 667.137 2882.34 668.042 2881.15 669.853 2879.96 671.663 2879.36 677.931 2879.36 688.657 2879.36 696.601 2880.06 701.383 2881.45 703.004 2882.84 704.625 2886.94 705.436 2893.75 705.436 2900.26 705.436 2904.17 704.524 2905.46 702.7 2906.76 700.876 2907.41 695.344 2907.41 686.104 2907.41 676.837 2906.79 671.359 2905.56 669.67 2904.33 667.982 2900.32 667.137 2893.51 667.137ZM3869.41 658.627 3907.26 658.627 3907.26 667.461 3879.91 667.461 3879.91 681.727 3905.85 681.727 3905.85 689.468 3879.91 689.468 3879.91 705.111 3907.51 705.111 3907.51 713.946 3869.41 713.946ZM3717.54 658.627 3739.83 658.627 3742.58 658.627C3750.07 658.627 3755.11 659.93 3757.72 662.537 3760.33 665.145 3761.63 670.177 3761.63 677.634 3761.63 685.037 3760.39 689.954 3757.9 692.386 3755.42 694.817 3750.39 696.033 3742.83 696.033L3740.39 696.074 3728.03 696.074 3728.03 713.946 3717.54 713.946ZM3664.26 658.627 3691.53 658.627C3698.31 658.627 3702.99 659.802 3705.55 662.152 3708.12 664.503 3709.4 668.758 3709.4 674.919 3709.4 680.511 3708.76 684.334 3707.48 686.388 3706.19 688.441 3703.57 689.86 3699.6 690.643L3699.6 691.008C3705.73 691.386 3708.79 694.966 3708.79 701.748L3708.79 713.946 3698.3 713.946 3698.3 703.855C3698.3 698.154 3695.49 695.304 3689.87 695.304L3674.75 695.304 3674.75 713.946 3664.26 713.946ZM3608.72 658.627 3619.22 658.627 3619.22 696.033C3619.22 700.113 3619.95 702.7 3621.41 703.794 3622.87 704.888 3626.3 705.436 3631.7 705.436 3637.24 705.436 3640.72 704.882 3642.14 703.774 3643.56 702.666 3644.27 699.951 3644.27 695.628L3644.27 658.627 3654.76 658.627 3654.76 695.425C3654.76 703.126 3653.28 708.219 3650.32 710.704 3647.37 713.19 3641.32 714.433 3632.19 714.433 3622.54 714.433 3616.22 713.257 3613.22 710.907 3610.22 708.556 3608.72 703.598 3608.72 696.033ZM3558.27 658.627 3580.56 658.627 3583.31 658.627C3590.8 658.627 3595.84 659.93 3598.45 662.537 3601.06 665.145 3602.36 670.177 3602.36 677.634 3602.36 685.037 3601.12 689.954 3598.63 692.386 3596.15 694.817 3591.12 696.033 3583.55 696.033L3581.12 696.074 3568.76 696.074 3568.76 713.946 3558.27 713.946ZM3481.49 658.627 3491.99 658.627 3491.99 681.2 3517.93 681.2 3517.93 658.627 3528.43 658.627 3528.43 713.946 3517.93 713.946 3517.93 690.035 3491.99 690.035 3491.99 713.946 3481.49 713.946ZM3433.54 658.627 3476.54 658.627 3476.54 668.029 3460 668.029 3460 713.946 3449.5 713.946 3449.5 668.029 3433.54 668.029ZM3417.9 658.627 3428.4 658.627 3428.4 713.946 3417.9 713.946ZM3331.11 658.627 3341.81 658.627 3349.79 688.982C3350.28 690.927 3350.89 693.615 3351.62 697.046L3352.47 701.099 3353.28 705.152 3353.64 705.152C3354.08 703.369 3354.4 702.018 3354.62 701.099L3355.59 697.087C3356.1 694.98 3356.82 692.291 3357.74 689.022L3366.25 658.627 3378.57 658.627 3386.88 689.022C3387.58 691.616 3388.27 694.304 3388.94 697.087L3389.88 701.099 3390.85 705.152 3391.17 705.152 3392.06 701.099 3392.92 697.046C3393.62 693.777 3394.25 691.075 3394.82 688.941L3403.01 658.627 3413.75 658.627 3398.95 713.946 3383.43 713.946 3375.73 685.577C3375.03 683.01 3374.21 679.579 3373.26 675.283L3372.49 671.879 3372.12 671.879 3371.31 675.324 3370.54 678.728C3369.98 681.025 3369.37 683.321 3368.72 685.618L3360.82 713.946 3345.46 713.946ZM3216.97 658.627 3259.83 658.627 3259.97 658.627 3271.98 658.627 3280.33 673.216C3280.79 674.027 3281.58 675.526 3282.68 677.715L3283.86 679.944 3284.99 682.173 3285.28 682.173 3286.45 679.944 3287.63 677.715C3288.63 675.716 3289.42 674.216 3290.02 673.216L3298.45 658.627 3310.77 658.627 3290.26 692.832 3290.26 713.946 3279.77 713.946 3279.77 692.832 3259.97 658.878 3259.97 668.029 3243.44 668.029 3243.44 713.946 3232.94 713.946 3232.94 668.029 3216.97 668.029ZM3201.34 658.627 3211.84 658.627 3211.84 713.946 3201.34 713.946ZM3145.24 658.627 3156.14 658.627 3166.52 689.954C3167.49 692.953 3168.94 697.979 3170.86 705.03L3171.14 705.03 3172.19 701.261C3173.49 696.56 3174.6 692.805 3175.52 689.995L3185.77 658.627 3196.87 658.627 3179.04 713.946 3162.91 713.946ZM3130.3 658.627 3140.79 658.627 3140.79 713.946 3130.3 713.946ZM3082.34 658.627 3125.34 658.627 3125.34 668.029 3108.8 668.029 3108.8 713.946 3098.31 713.946 3098.31 668.029 3082.34 668.029ZM2980.23 658.627 2990.73 658.627 2990.73 696.033C2990.73 700.113 2991.46 702.7 2992.92 703.794 2994.38 704.888 2997.81 705.436 3003.21 705.436 3008.75 705.436 3012.23 704.882 3013.65 703.774 3015.07 702.666 3015.78 699.951 3015.78 695.628L3015.78 658.627 3026.27 658.627 3026.27 695.425C3026.27 703.126 3024.79 708.219 3021.83 710.704 3018.88 713.19 3012.83 714.433 3003.7 714.433 2994.05 714.433 2987.73 713.257 2984.73 710.907 2981.73 708.556 2980.23 703.598 2980.23 696.033ZM2924.62 658.627 2951.81 658.627C2959.54 658.627 2964.95 660.315 2968.05 663.692 2971.14 667.07 2972.69 672.987 2972.69 681.443 2972.69 695.25 2971.44 704.118 2968.96 708.05 2966.47 711.981 2960.87 713.946 2952.14 713.946L2924.62 713.946ZM2818.06 658.627 2845.33 658.627C2852.11 658.627 2856.79 659.802 2859.35 662.152 2861.92 664.503 2863.21 668.758 2863.21 674.919 2863.21 680.511 2862.56 684.334 2861.28 686.388 2860 688.441 2857.37 689.86 2853.4 690.643L2853.4 691.008C2859.53 691.386 2862.6 694.966 2862.6 701.748L2862.6 713.946 2852.1 713.946 2852.1 703.855C2852.1 698.154 2849.29 695.304 2843.67 695.304L2828.55 695.304 2828.55 713.946 2818.06 713.946ZM2767.64 658.627 2789.93 658.627 2792.69 658.627C2800.17 658.627 2805.22 659.93 2807.82 662.537 2810.43 665.145 2811.73 670.177 2811.73 677.634 2811.73 685.037 2810.49 689.954 2808.01 692.386 2805.52 694.817 2800.5 696.033 2792.93 696.033L2790.5 696.074 2778.14 696.074 2778.14 713.946 2767.64 713.946ZM3841.13 658.14C3849.46 658.14 3855.06 659.126 3857.95 661.099 3860.84 663.071 3862.29 666.921 3862.29 672.649L3862.29 674.756 3852.04 674.756C3851.98 674.243 3851.95 673.865 3851.95 673.622 3851.71 670.515 3851.02 668.562 3849.89 667.765 3848.75 666.968 3846.08 666.57 3841.86 666.57 3836.89 666.57 3833.64 667.029 3832.12 667.948 3830.59 668.866 3829.83 670.798 3829.83 673.743 3829.83 677.229 3830.45 679.323 3831.69 680.025 3832.93 680.727 3837.04 681.268 3844.01 681.646 3852.25 682.105 3857.58 683.281 3860 685.172 3862.42 687.063 3863.63 690.994 3863.63 696.965 3863.63 704.314 3862.21 709.063 3859.37 711.211 3856.53 713.359 3850.28 714.433 3840.61 714.433 3831.91 714.433 3826.13 713.379 3823.28 711.272 3820.43 709.164 3819.01 704.895 3819.01 698.465L3818.97 696.439 3829.18 696.439 3829.22 697.614C3829.22 701.477 3829.89 703.842 3831.24 704.706 3832.6 705.571 3836.28 706.003 3842.31 706.003 3847.01 706.003 3850.01 705.503 3851.31 704.503 3852.6 703.504 3853.25 701.194 3853.25 697.573 3853.25 694.898 3852.76 693.122 3851.77 692.244 3850.79 691.366 3848.66 690.832 3845.39 690.643L3839.59 690.278C3830.84 689.765 3825.25 688.549 3822.82 686.631 3820.38 684.713 3819.17 680.592 3819.17 674.27 3819.17 667.813 3820.63 663.51 3823.56 661.362 3826.5 659.214 3832.35 658.14 3841.13 658.14ZM3790.93 658.14C3800.98 658.14 3807.45 659.809 3810.34 663.145 3813.24 666.482 3814.68 673.946 3814.68 685.537 3814.68 698.208 3813.23 706.192 3810.32 709.488 3807.42 712.785 3800.39 714.433 3789.23 714.433 3779.18 714.433 3772.68 712.805 3769.74 709.549 3766.79 706.293 3765.32 699.127 3765.32 688.049 3765.32 674.865 3766.76 666.583 3769.66 663.206 3772.55 659.829 3779.64 658.14 3790.93 658.14ZM3060.16 658.14C3068.05 658.14 3073.32 659.322 3075.97 661.686 3078.62 664.05 3079.94 668.745 3079.94 675.77L3079.98 677.026 3069.44 677.026 3069.44 675.607C3069.44 671.987 3068.76 669.67 3067.4 668.657 3066.03 667.644 3062.92 667.137 3058.06 667.137 3051.54 667.137 3047.63 667.934 3046.32 669.528 3045.01 671.122 3044.36 675.851 3044.36 683.713 3044.36 694.304 3044.95 700.572 3046.12 702.518 3047.3 704.463 3051.1 705.436 3057.53 705.436 3062.74 705.436 3066.13 704.895 3067.68 703.815 3069.23 702.734 3070.01 700.356 3070.01 696.682L3069.93 694.21 3080.47 694.21 3080.47 696.114C3080.47 703.815 3079.06 708.793 3076.25 711.049 3073.44 713.305 3067.23 714.433 3057.61 714.433 3046.69 714.433 3039.98 712.649 3037.47 709.083 3034.96 705.517 3033.7 695.979 3033.7 680.471 3033.7 671.339 3035.4 665.334 3038.81 662.456 3042.21 659.579 3049.33 658.14 3060.16 658.14ZM2894.32 658.14C2904.37 658.14 2910.84 659.809 2913.73 663.145 2916.62 666.482 2918.07 673.946 2918.07 685.537 2918.07 698.208 2916.61 706.192 2913.71 709.488 2910.81 712.785 2903.77 714.433 2892.62 714.433 2882.56 714.433 2876.07 712.805 2873.12 709.549 2870.18 706.293 2868.7 699.127 2868.7 688.049 2868.7 674.865 2870.15 666.583 2873.04 663.206 2875.93 659.829 2883.02 658.14 2894.32 658.14Z" fill="url(#fill2)" fill-rule="evenodd"/><text fill="#000000" fill-opacity="0" font-family="Arial,Arial_MSFontService,sans-serif" font-size="56.2925" direction="ltr" writing-mode="lr-tb" x="2767.64" y="707.396">PRODUCTIVITY WITH PURPOSE</text></g></g></svg>