<svg width="2677" height="541" xmlns="http://www.w3.org/2000/svg" xmlns:xlink="http://www.w3.org/1999/xlink" xml:space="preserve" overflow="hidden"><defs><linearGradient x1="1684.8" y1="1618.64" x2="1450.2" y2="1966.36" gradientUnits="userSpaceOnUse" spreadMethod="reflect" id="fill0"><stop offset="0" stop-color="#003F77" stop-opacity="1"/><stop offset="0.5" stop-color="#005FAD" stop-opacity="1"/><stop offset="1" stop-color="#0072CE" stop-opacity="1"/></linearGradient></defs><g transform="translate(-1315 -1521)"><g><path d="M1318 1626.5C1318 1580.94 1354.94 1544 1400.5 1544L1730.5 1544C1776.06 1544 1813 1580.94 1813 1626.5L1813 1956.5C1813 2002.06 1776.06 2039 1730.5 2039L1400.5 2039C1354.94 2039 1318 2002.06 1318 1956.5Z" fill="#FFFFFF" fill-rule="evenodd" fill-opacity="1"/><path d="M1544.06 1919 1542.66 1919C1536.56 1918.53 1531.41 1913.84 1530 1907.74L1497.66 1735.97 1477.5 1796.98C1475.62 1802.61 1470.47 1806.36 1464.38 1806.36L1380 1806.36 1380 1778.21 1454.06 1778.21 1488.28 1675.43C1490.16 1669.32 1496.25 1665.57 1502.34 1666.04 1508.44 1666.51 1514.06 1671.2 1515 1677.3L1547.81 1853.3 1595.62 1726.58C1597.97 1720.95 1603.12 1717.2 1609.22 1717.66 1615.31 1718.13 1620.47 1721.89 1622.34 1727.99L1649.06 1815.75 1679.06 1782.9C1681.87 1780.08 1685.62 1778.21 1689.37 1778.21L1755 1778.21 1755 1806.36 1695.47 1806.36 1652.81 1853.3C1649.53 1857.05 1644.37 1858.46 1639.22 1857.52 1634.06 1856.58 1630.31 1852.83 1628.91 1847.66L1607.81 1775.39 1557.19 1910.08C1555.31 1915.25 1549.69 1919 1544.06 1919Z" fill="url(#fill0)" fill-rule="evenodd"/><path d="M2001.17 1729.03 2001.17 1798.55 2126.57 1798.55C2142.6 1798.55 2153.57 1796.48 2159.49 1792.32 2165.41 1788.16 2168.37 1778.95 2168.37 1764.67 2168.37 1749.76 2165.34 1740.09 2159.27 1735.67 2153.21 1731.25 2141.87 1729.03 2125.25 1729.03ZM2330.01 1649.83 2428.13 1649.83 2428.13 1807.35C2428.13 1835.94 2431.27 1854.16 2437.55 1862.01 2443.84 1869.87 2459.03 1873.79 2483.13 1873.79L2527.5 1874.3 2568.93 1873.79C2588.96 1873.79 2602.04 1870.41 2608.15 1863.64 2614.27 1856.88 2617.33 1842.37 2617.33 1820.11L2617.33 1809.11 2617.33 1649.83 2715.89 1649.83 2715.89 1820.99 2715.89 1838.15C2715.89 1885.57 2703.41 1916.86 2678.45 1932.02 2653.49 1947.18 2615.64 1954.75 2564.9 1954.75L2491.93 1954.31C2452.84 1954.31 2422.69 1952.19 2401.48 1947.95 2380.27 1943.71 2363.05 1932.83 2349.84 1915.31 2336.62 1897.78 2330.01 1870.6 2330.01 1833.75ZM3583.99 1649.39 3920.15 1649.39 3920.15 1724.63 3682.11 1724.63 3682.11 1766.43 3904.31 1766.43 3904.31 1832.87 3682.11 1832.87 3682.11 1876.43 3920.15 1876.43 3920.15 1951.23 3583.99 1951.23ZM2792.22 1649.39 2890.34 1649.39 2890.34 1869.39 3093.18 1869.39 3093.18 1951.23 2792.22 1951.23ZM1903.05 1649.39 2145.05 1649.39C2190.49 1649.39 2222.23 1656.96 2240.29 1672.08 2258.34 1687.21 2267.37 1717.04 2267.37 1761.59 2267.37 1803.68 2260.32 1833.64 2246.22 1851.46 2232.12 1869.28 2203.09 1878.19 2159.13 1878.19L2136.25 1878.19 2001.17 1878.19 2001.17 1951.23 1903.05 1951.23ZM3322.81 1646.31 3385.31 1647.19C3413.42 1647.19 3435.52 1649.28 3451.62 1653.46 3467.72 1657.64 3479.13 1665.36 3485.85 1676.61 3492.57 1687.85 3496.84 1697.93 3498.68 1706.82 3500.52 1715.72 3501.44 1729.14 3501.44 1747.07L3405.08 1747.07C3405.08 1735.46 3402.57 1727.94 3397.55 1724.5 3392.52 1721.07 3385.04 1719.35 3375.1 1719.35L3332.18 1718.91 3264.06 1721.11C3255.6 1721.11 3248.75 1722.51 3243.53 1725.31 3238.3 1728.1 3235.68 1732.57 3235.68 1738.71 3235.68 1747.96 3238.85 1754.01 3245.19 1756.87 3251.52 1759.73 3260.82 1761.15 3273.08 1761.15L3278.12 1761.15 3337.76 1761.59 3401.12 1762.47C3439.9 1762.47 3468.37 1768.76 3486.53 1781.33 3504.69 1793.9 3513.76 1818.71 3513.76 1855.75 3513.76 1891.78 3505.61 1916.62 3489.3 1930.29 3472.99 1943.96 3446.55 1950.79 3409.99 1950.79L3295.52 1953.87 3235.68 1952.55C3203.04 1952.55 3178.75 1947.08 3162.8 1936.14 3146.86 1925.2 3138.88 1903.39 3138.88 1870.71L3138.88 1849.15 3235.29 1849.15 3236.12 1858.41C3236.12 1868.43 3239.54 1874.75 3246.38 1877.36 3253.21 1879.97 3262.11 1881.27 3273.08 1881.27L3319.59 1881.78 3381.44 1879.95C3395.49 1879.95 3404.56 1878.27 3408.64 1874.91 3412.72 1871.54 3414.76 1866.04 3414.76 1858.39 3414.76 1851.9 3412.36 1846.68 3407.56 1842.74 3402.76 1838.8 3392.84 1836.83 3377.8 1836.83L3363.15 1836.83 3216.32 1833.75C3187.31 1833.75 3166.79 1826.33 3154.75 1811.47 3142.7 1796.61 3136.68 1774.27 3136.68 1744.43 3136.68 1719.45 3140.49 1699.82 3148.09 1685.54 3155.69 1671.26 3169.32 1661.61 3188.97 1656.58 3208.62 1651.55 3234.25 1648.58 3265.87 1647.68 3297.48 1646.77 3316.46 1646.31 3322.81 1646.31Z" stroke="#FFFFFF" stroke-width="3" stroke-linecap="butt" stroke-linejoin="round" stroke-miterlimit="10" stroke-opacity="1" fill="#FFFFFF" fill-rule="evenodd" fill-opacity="1"/><text fill="#000000" fill-opacity="0" font-family="Arial,Arial_MSFontService,sans-serif" font-size="308.44" direction="ltr" writing-mode="lr-tb" x="1903.05" y="1916.2">PULSE</text><path d="M3748.84 1575.91 3748.84 1595.69 3760.8 1595.69C3765.56 1595.69 3768.57 1595.14 3769.86 1594.05 3771.14 1592.95 3771.78 1590.36 3771.78 1586.28 3771.78 1581.61 3771.25 1578.71 3770.18 1577.59 3769.11 1576.47 3766.34 1575.91 3761.85 1575.91ZM3695.56 1575.91 3695.56 1594.92 3710.64 1594.92C3714.23 1594.92 3716.62 1594.28 3717.79 1592.99 3718.97 1591.71 3719.56 1589.14 3719.56 1585.27 3719.56 1581.33 3719.05 1578.78 3718.04 1577.63 3717.02 1576.48 3714.8 1575.91 3711.37 1575.91ZM3589.57 1575.91 3589.57 1595.69 3601.53 1595.69C3606.28 1595.69 3609.3 1595.14 3610.59 1594.05 3611.87 1592.95 3612.51 1590.36 3612.51 1586.28 3612.51 1581.61 3611.98 1578.71 3610.91 1577.59 3609.84 1576.47 3607.07 1575.91 3602.58 1575.91ZM2955.93 1575.91 2955.93 1613.56 2970.88 1613.56C2975.91 1613.56 2979.16 1612.4 2980.63 1610.09 2982.1 1607.78 2982.84 1602.68 2982.84 1594.8 2982.84 1586.64 2982.18 1581.45 2980.85 1579.23 2979.53 1577.02 2976.42 1575.91 2971.53 1575.91ZM2849.37 1575.91 2849.37 1594.92 2864.44 1594.92C2868.04 1594.92 2870.42 1594.28 2871.59 1592.99 2872.77 1591.71 2873.36 1589.14 2873.36 1585.27 2873.36 1581.33 2872.85 1578.78 2871.84 1577.63 2870.82 1576.48 2868.6 1575.91 2865.17 1575.91ZM2798.95 1575.91 2798.95 1595.69 2810.9 1595.69C2815.66 1595.69 2818.68 1595.14 2819.96 1594.05 2821.25 1592.95 2821.89 1590.36 2821.89 1586.28 2821.89 1581.61 2821.35 1578.71 2820.29 1577.59 2819.22 1576.47 2816.44 1575.91 2811.96 1575.91ZM3810.93 1575.59C3803.88 1575.59 3799.76 1576.49 3798.57 1578.3 3797.38 1580.11 3796.79 1586.38 3796.79 1597.11 3796.79 1605.05 3797.48 1609.83 3798.88 1611.45 3800.27 1613.07 3804.37 1613.88 3811.18 1613.88 3817.69 1613.88 3821.59 1612.97 3822.89 1611.15 3824.19 1609.32 3824.83 1603.79 3824.83 1594.55 3824.83 1585.28 3824.22 1579.81 3822.99 1578.12 3821.76 1576.43 3817.74 1575.59 3810.93 1575.59ZM2914.32 1575.59C2907.27 1575.59 2903.15 1576.49 2901.96 1578.3 2900.77 1580.11 2900.17 1586.38 2900.17 1597.11 2900.17 1605.05 2900.87 1609.83 2902.26 1611.45 2903.65 1613.07 2907.75 1613.88 2914.56 1613.88 2921.07 1613.88 2924.98 1612.97 2926.27 1611.15 2927.57 1609.32 2928.22 1603.79 2928.22 1594.55 2928.22 1585.28 2927.6 1579.81 2926.38 1578.12 2925.15 1576.43 2921.13 1575.59 2914.32 1575.59ZM3890.22 1567.07 3928.07 1567.07 3928.07 1575.91 3900.72 1575.91 3900.72 1590.18 3926.66 1590.18 3926.66 1597.92 3900.72 1597.92 3900.72 1613.56 3928.32 1613.56 3928.32 1622.39 3890.22 1622.39ZM3738.35 1567.07 3760.64 1567.07 3763.39 1567.07C3770.88 1567.07 3775.92 1568.38 3778.53 1570.99 3781.14 1573.59 3782.44 1578.62 3782.44 1586.08 3782.44 1593.48 3781.2 1598.4 3778.71 1600.83 3776.23 1603.27 3771.2 1604.48 3763.64 1604.48L3761.21 1604.52 3748.84 1604.52 3748.84 1622.39 3738.35 1622.39ZM3685.07 1567.07 3712.34 1567.07C3719.12 1567.07 3723.8 1568.25 3726.36 1570.6 3728.93 1572.95 3730.21 1577.21 3730.21 1583.37 3730.21 1588.96 3729.57 1592.78 3728.29 1594.84 3727.01 1596.89 3724.38 1598.31 3720.41 1599.09L3720.41 1599.46C3726.54 1599.83 3729.61 1603.41 3729.61 1610.2L3729.61 1622.39 3719.11 1622.39 3719.11 1612.3C3719.11 1606.6 3716.3 1603.75 3710.68 1603.75L3695.56 1603.75 3695.56 1622.39 3685.07 1622.39ZM3629.53 1567.07 3640.03 1567.07 3640.03 1604.48C3640.03 1608.56 3640.76 1611.15 3642.22 1612.24 3643.68 1613.34 3647.11 1613.88 3652.51 1613.88 3658.05 1613.88 3661.53 1613.33 3662.95 1612.22 3664.37 1611.11 3665.08 1608.4 3665.08 1604.08L3665.08 1567.07 3675.57 1567.07 3675.57 1603.87C3675.57 1611.57 3674.09 1616.67 3671.14 1619.15 3668.18 1621.64 3662.13 1622.88 3653 1622.88 3643.35 1622.88 3637.03 1621.71 3634.03 1619.35 3631.03 1617 3629.53 1612.05 3629.53 1604.48ZM3579.08 1567.07 3601.37 1567.07 3604.12 1567.07C3611.61 1567.07 3616.65 1568.38 3619.26 1570.99 3621.87 1573.59 3623.17 1578.62 3623.17 1586.08 3623.17 1593.48 3621.93 1598.4 3619.44 1600.83 3616.96 1603.27 3611.93 1604.48 3604.37 1604.48L3601.93 1604.52 3589.57 1604.52 3589.57 1622.39 3579.08 1622.39ZM3502.31 1567.07 3512.8 1567.07 3512.8 1589.65 3538.74 1589.65 3538.74 1567.07 3549.24 1567.07 3549.24 1622.39 3538.74 1622.39 3538.74 1598.48 3512.8 1598.48 3512.8 1622.39 3502.31 1622.39ZM3454.35 1567.07 3497.35 1567.07 3497.35 1576.48 3480.81 1576.48 3480.81 1622.39 3470.32 1622.39 3470.32 1576.48 3454.35 1576.48ZM3438.71 1567.07 3449.21 1567.07 3449.21 1622.39 3438.71 1622.39ZM3351.92 1567.07 3362.62 1567.07 3370.61 1597.43C3371.09 1599.37 3371.7 1602.06 3372.43 1605.49L3373.28 1609.55 3374.09 1613.6 3374.46 1613.6C3374.89 1611.82 3375.21 1610.47 3375.43 1609.55L3376.4 1605.54C3376.91 1603.43 3377.63 1600.74 3378.55 1597.47L3387.06 1567.07 3399.38 1567.07 3407.69 1597.47C3408.39 1600.06 3409.08 1602.75 3409.75 1605.54L3410.69 1609.55 3411.66 1613.6 3411.98 1613.6 3412.88 1609.55 3413.73 1605.49C3414.43 1602.23 3415.06 1599.52 3415.63 1597.39L3423.82 1567.07 3434.56 1567.07 3419.77 1622.39 3404.24 1622.39 3396.54 1594.03C3395.84 1591.46 3395.02 1588.03 3394.07 1583.73L3393.3 1580.33 3392.94 1580.33 3392.13 1583.77 3391.36 1587.18C3390.79 1589.47 3390.18 1591.77 3389.53 1594.07L3381.63 1622.39 3366.27 1622.39ZM3237.78 1567.07 3280.64 1567.07 3280.78 1567.07 3292.8 1567.07 3301.14 1581.66C3301.6 1582.47 3302.39 1583.97 3303.49 1586.16L3304.67 1588.39 3305.8 1590.62 3306.09 1590.62 3307.26 1588.39 3308.44 1586.16C3309.44 1584.16 3310.24 1582.66 3310.83 1581.66L3319.26 1567.07 3331.58 1567.07 3311.07 1601.28 3311.07 1622.39 3300.58 1622.39 3300.58 1601.28 3280.78 1567.33 3280.78 1576.48 3264.25 1576.48 3264.25 1622.39 3253.75 1622.39 3253.75 1576.48 3237.78 1576.48ZM3222.15 1567.07 3232.65 1567.07 3232.65 1622.39 3222.15 1622.39ZM3166.05 1567.07 3176.96 1567.07 3187.33 1598.4C3188.3 1601.4 3189.75 1606.43 3191.67 1613.48L3191.95 1613.48 3193 1609.71C3194.3 1605.01 3195.41 1601.25 3196.33 1598.44L3206.58 1567.07 3217.69 1567.07 3199.85 1622.39 3183.72 1622.39ZM3151.11 1567.07 3161.61 1567.07 3161.61 1622.39 3151.11 1622.39ZM3103.15 1567.07 3146.15 1567.07 3146.15 1576.48 3129.61 1576.48 3129.61 1622.39 3119.12 1622.39 3119.12 1576.48 3103.15 1576.48ZM3001.04 1567.07 3011.54 1567.07 3011.54 1604.48C3011.54 1608.56 3012.27 1611.15 3013.73 1612.24 3015.19 1613.34 3018.62 1613.88 3024.02 1613.88 3029.56 1613.88 3033.04 1613.33 3034.46 1612.22 3035.88 1611.11 3036.59 1608.4 3036.59 1604.08L3036.59 1567.07 3047.08 1567.07 3047.08 1603.87C3047.08 1611.57 3045.6 1616.67 3042.65 1619.15 3039.69 1621.64 3033.64 1622.88 3024.51 1622.88 3014.86 1622.88 3008.54 1621.71 3005.54 1619.35 3002.54 1617 3001.04 1612.05 3001.04 1604.48ZM2945.43 1567.07 2972.63 1567.07C2980.35 1567.07 2985.76 1568.76 2988.86 1572.14 2991.95 1575.52 2993.5 1581.43 2993.5 1589.89 2993.5 1603.7 2992.25 1612.57 2989.77 1616.5 2987.28 1620.43 2981.68 1622.39 2972.95 1622.39L2945.43 1622.39ZM2838.87 1567.07 2866.14 1567.07C2872.93 1567.07 2877.6 1568.25 2880.17 1570.6 2882.73 1572.95 2884.02 1577.21 2884.02 1583.37 2884.02 1588.96 2883.37 1592.78 2882.09 1594.84 2880.81 1596.89 2878.18 1598.31 2874.21 1599.09L2874.21 1599.46C2880.34 1599.83 2883.41 1603.41 2883.41 1610.2L2883.41 1622.39 2872.91 1622.39 2872.91 1612.3C2872.91 1606.6 2870.1 1603.75 2864.48 1603.75L2849.37 1603.75 2849.37 1622.39 2838.87 1622.39ZM2788.45 1567.07 2810.74 1567.07 2813.5 1567.07C2820.98 1567.07 2826.03 1568.38 2828.64 1570.99 2831.24 1573.59 2832.55 1578.62 2832.55 1586.08 2832.55 1593.48 2831.3 1598.4 2828.82 1600.83 2826.33 1603.27 2821.31 1604.48 2813.74 1604.48L2811.31 1604.52 2798.95 1604.52 2798.95 1622.39 2788.45 1622.39ZM3861.94 1566.59C3870.27 1566.59 3875.87 1567.57 3878.76 1569.55 3881.65 1571.52 3883.1 1575.37 3883.1 1581.1L3883.1 1583.2 3872.85 1583.2C3872.79 1582.69 3872.77 1582.31 3872.77 1582.07 3872.52 1578.96 3871.83 1577.01 3870.7 1576.21 3869.56 1575.42 3866.89 1575.02 3862.67 1575.02 3857.7 1575.02 3854.45 1575.48 3852.93 1576.4 3851.4 1577.31 3850.64 1579.25 3850.64 1582.19 3850.64 1585.68 3851.26 1587.77 3852.5 1588.47 3853.74 1589.18 3857.85 1589.72 3864.82 1590.09 3873.06 1590.55 3878.39 1591.73 3880.81 1593.62 3883.23 1595.51 3884.44 1599.44 3884.44 1605.41 3884.44 1612.76 3883.02 1617.51 3880.18 1619.66 3877.35 1621.81 3871.09 1622.88 3861.42 1622.88 3852.72 1622.88 3846.94 1621.83 3844.09 1619.72 3841.24 1617.61 3839.82 1613.34 3839.82 1606.91L3839.78 1604.89 3849.99 1604.89 3850.03 1606.06C3850.03 1609.93 3850.71 1612.29 3852.06 1613.15 3853.41 1614.02 3857.09 1614.45 3863.12 1614.45 3867.82 1614.45 3870.82 1613.95 3872.12 1612.95 3873.41 1611.95 3874.06 1609.64 3874.06 1606.02 3874.06 1603.35 3873.57 1601.57 3872.58 1600.69 3871.6 1599.81 3869.47 1599.28 3866.2 1599.09L3860.4 1598.73C3851.65 1598.21 3846.06 1597 3843.63 1595.08 3841.19 1593.16 3839.98 1589.04 3839.98 1582.72 3839.98 1576.26 3841.44 1571.96 3844.38 1569.81 3847.31 1567.66 3853.16 1566.59 3861.94 1566.59ZM3811.74 1566.59C3821.79 1566.59 3828.27 1568.26 3831.16 1571.59 3834.05 1574.93 3835.49 1582.39 3835.49 1593.98 3835.49 1606.66 3834.04 1614.64 3831.14 1617.94 3828.23 1621.23 3821.2 1622.88 3810.04 1622.88 3799.99 1622.88 3793.49 1621.25 3790.55 1618 3787.6 1614.74 3786.13 1607.57 3786.13 1596.5 3786.13 1583.31 3787.58 1575.03 3790.47 1571.65 3793.36 1568.28 3800.45 1566.59 3811.74 1566.59ZM3080.97 1566.59C3088.86 1566.59 3094.13 1567.77 3096.78 1570.13 3099.43 1572.5 3100.75 1577.19 3100.75 1584.22L3100.79 1585.47 3090.26 1585.47 3090.26 1584.06C3090.26 1580.44 3089.57 1578.12 3088.21 1577.11 3086.84 1576.09 3083.73 1575.59 3078.87 1575.59 3072.36 1575.59 3068.45 1576.38 3067.13 1577.98 3065.82 1579.57 3065.17 1584.3 3065.17 1592.16 3065.17 1602.75 3065.76 1609.02 3066.93 1610.97 3068.11 1612.91 3071.91 1613.88 3078.34 1613.88 3083.56 1613.88 3086.94 1613.34 3088.49 1612.26 3090.05 1611.18 3090.82 1608.8 3090.82 1605.13L3090.74 1602.66 3101.28 1602.66 3101.28 1604.56C3101.28 1612.26 3099.87 1617.24 3097.06 1619.5 3094.25 1621.75 3088.04 1622.88 3078.42 1622.88 3067.51 1622.88 3060.79 1621.1 3058.28 1617.53 3055.77 1613.96 3054.51 1604.43 3054.51 1588.92 3054.51 1579.79 3056.21 1573.78 3059.62 1570.9 3063.02 1568.03 3070.14 1566.59 3080.97 1566.59ZM2915.13 1566.59C2925.18 1566.59 2931.65 1568.26 2934.54 1571.59 2937.43 1574.93 2938.88 1582.39 2938.88 1593.98 2938.88 1606.66 2937.43 1614.64 2934.52 1617.94 2931.62 1621.23 2924.59 1622.88 2913.43 1622.88 2903.38 1622.88 2896.88 1621.25 2893.93 1618 2890.99 1614.74 2889.52 1607.57 2889.52 1596.5 2889.52 1583.31 2890.96 1575.03 2893.85 1571.65 2896.74 1568.28 2903.84 1566.59 2915.13 1566.59Z" stroke="#FFFFFF" stroke-width="3" stroke-linecap="butt" stroke-linejoin="round" stroke-miterlimit="10" stroke-opacity="1" fill="#FFFFFF" fill-rule="evenodd" fill-opacity="1"/><text fill="#000000" fill-opacity="0" font-family="Arial,Arial_MSFontService,sans-serif" font-size="56.2925" direction="ltr" writing-mode="lr-tb" x="2788.45" y="1615.84">PRODUCTIVITY WITH PURPOSE</text></g></g></svg>