<svg width="500" height="500" xmlns="http://www.w3.org/2000/svg" xmlns:xlink="http://www.w3.org/1999/xlink" xml:space="preserve" overflow="hidden"><defs><linearGradient x1="919" y1="997" x2="424" y2="502" gradientUnits="userSpaceOnUse" spreadMethod="reflect" id="fill0"><stop offset="0" stop-color="#003F77" stop-opacity="1"/><stop offset="0.5" stop-color="#005FAD" stop-opacity="1"/><stop offset="1" stop-color="#0072CE" stop-opacity="1"/></linearGradient></defs><g transform="translate(-421 -499)"><g><path d="M424 584.502C424 538.937 460.937 502 506.501 502L836.498 502C882.063 502 919 538.937 919 584.502L919 914.498C919 960.063 882.063 997 836.498 997L506.501 997C460.937 997 424 960.063 424 914.498Z" fill="url(#fill0)" fill-rule="evenodd"/><path d="M649.625 876 648.223 876C642.145 875.533 637.003 870.858 635.6 864.781L603.342 693.691 583.24 754.461C581.37 760.07 576.228 763.81 570.15 763.81L486 763.81 486 735.762 559.865 735.762 593.993 633.388C595.863 627.312 601.94 623.572 608.017 624.039 614.095 624.507 619.705 629.181 620.64 635.258L653.365 810.556 701.05 684.342C703.388 678.732 708.53 674.993 714.608 675.46 720.685 675.927 725.828 679.667 727.698 685.744L754.345 773.159 784.265 740.437C787.07 737.632 790.81 735.762 794.55 735.762L860 735.762 860 763.81 800.628 763.81 758.085 810.556C754.813 814.296 749.67 815.698 744.528 814.763 739.385 813.828 735.645 810.088 734.243 804.946L713.205 732.958 662.715 867.118C660.845 872.261 655.235 876 649.625 876Z" fill="#FFFFFF" fill-rule="evenodd" fill-opacity="1"/></g></g></svg>