<svg width="499" height="500" xmlns="http://www.w3.org/2000/svg" xmlns:xlink="http://www.w3.org/1999/xlink" xml:space="preserve" overflow="hidden"><defs><linearGradient x1="794.162" y1="1900.6" x2="560.838" y2="1553.4" gradientUnits="userSpaceOnUse" spreadMethod="reflect" id="fill0"><stop offset="0" stop-color="#003F77" stop-opacity="1"/><stop offset="0.5" stop-color="#005FAD" stop-opacity="1"/><stop offset="1" stop-color="#0072CE" stop-opacity="1"/></linearGradient></defs><g transform="translate(-426 -1475)"><g><path d="M428 1560.5C428 1514.94 464.937 1478 510.502 1478L840.498 1478C886.063 1478 923 1514.94 923 1560.5L923 1890.5C923 1936.06 886.063 1973 840.498 1973L510.502 1973C464.937 1973 428 1936.06 428 1890.5Z" fill="#FFFFFF" fill-rule="evenodd" fill-opacity="1"/><path d="M654.062 1853 652.656 1853C646.562 1852.53 641.406 1847.86 640 1841.78L607.656 1670.69 587.5 1731.46C585.625 1737.07 580.469 1740.81 574.375 1740.81L490 1740.81 490 1712.76 564.062 1712.76 598.281 1610.39C600.156 1604.31 606.25 1600.57 612.343 1601.04 618.437 1601.51 624.062 1606.18 625 1612.26L657.812 1787.56 705.625 1661.34C707.969 1655.73 713.125 1651.99 719.219 1652.46 725.312 1652.93 730.469 1656.67 732.344 1662.74L759.062 1750.16 789.062 1717.44C791.875 1714.63 795.625 1712.76 799.375 1712.76L865 1712.76 865 1740.81 805.469 1740.81 762.812 1787.56C759.531 1791.3 754.375 1792.7 749.219 1791.76 744.062 1790.83 740.312 1787.09 738.906 1781.95L717.812 1709.96 667.187 1844.12C665.312 1849.26 659.687 1853 654.062 1853Z" fill="url(#fill0)" fill-rule="evenodd"/></g></g></svg>